<svg id="visual" viewBox="0 0 900 600" width="900" height="600" xmlns="http://www.w3.org/2000/svg" xmlns:xlink="http://www.w3.org/1999/xlink" version="1.1"><rect x="0" y="0" width="900" height="600" fill="#000000"></rect><defs><linearGradient id="grad1_0" x1="33.3%" y1="0%" x2="100%" y2="100%"><stop offset="20%" stop-color="#000000" stop-opacity="1"></stop><stop offset="80%" stop-color="#000000" stop-opacity="1"></stop></linearGradient></defs><defs><linearGradient id="grad2_0" x1="0%" y1="0%" x2="66.7%" y2="100%"><stop offset="20%" stop-color="#000000" stop-opacity="1"></stop><stop offset="80%" stop-color="#000000" stop-opacity="1"></stop></linearGradient></defs><g transform="translate(900, 0)"><path d="M0 459.7C-43 459.1 -86 458.4 -116.7 435.6C-147.5 412.9 -166 368 -201 348.1C-236 328.3 -287.7 333.5 -310.4 310.4C-333.2 287.3 -327.1 235.9 -349 201.5C-370.9 167.1 -420.9 149.7 -444 119C-467.2 88.2 -463.4 44.1 -459.7 0L0 0Z" fill="#deaa1c"></path></g><g transform="translate(0, 600)"><path d="M0 -459.7C40 -456.7 80 -453.6 118.3 -441.4C156.6 -429.2 193.2 -407.8 217.5 -376.7C241.8 -345.6 253.9 -304.7 277.2 -277.2C300.5 -249.6 335.1 -235.4 367.2 -212C399.3 -188.6 429 -155.9 444 -119C459.1 -82.1 459.4 -41.1 459.7 0L0 0Z" fill="#deaa1c"></path></g></svg>